<svg xmlns="http://www.w3.org/2000/svg" viewBox="0 0 59.22083 59.22083"><defs><style>.cls-1{fill:#f7941a;}.cls-2{fill:#fff;}</style></defs><g id="图层_2" data-name="图层 2"><g id="Layer_1" data-name="Layer 1"><circle class="cls-1" cx="29.61042" cy="29.61042" r="29.61042"/><path class="cls-2" d="M44.68444,35.3388c.446-4.801-5.13958-6.96354-5.13958-6.96354s2.91148-.69915,3.28226-5.40564c.2778-3.52637-4.11488-7.0101-8.84521-6.72921l.19687-5.826-3.62188-.09919-.14945,6.04046L27.703,16.23367l.05393-5.86184-3.63385-.05155.02939,5.93342-7.19655.21867-.159,3.8601,2.84759-.04461a1.68964,1.68964,0,0,1,2.08312,1.78941c.00957,2.18035.04377,14.75011.04377,14.75011s.0694,1.94212-1.551,1.9404a10.8126,10.8126,0,0,1-2.04915-.10943l-1.05319,4.39529,7.42345-.06038-.14987,5.78711,3.63385.05154-.06507-5.993,2.776.03871-.07787,5.95714,3.69345.01587-.01742-5.98107S43.90608,43.71793,44.68444,35.3388ZM27.82205,27.45721l-.06377-7.20831s8.50776-.80107,8.51516,3.40474C36.28235,28.70557,27.82205,27.45721,27.82205,27.45721Zm.0597,11.20862-.03967-7.65811s10.176-.9899,10.02806,3.63274C37.696,40.08162,27.88175,38.66583,27.88175,38.66583Z"/></g></g></svg>