<svg id="图层_1" data-name="图层 1" xmlns="http://www.w3.org/2000/svg" xmlns:xlink="http://www.w3.org/1999/xlink" viewBox="0 0 220 50"><defs><style>.cls-1{fill:url(#未命名的渐变_24);}.cls-2{fill:#36d0ac;}.cls-3{fill:url(#未命名的渐变_25);}.cls-4{fill:url(#未命名的渐变_30);}.cls-5{fill:url(#未命名的渐变_30-2);}.cls-6{fill:url(#未命名的渐变_30-3);}.cls-7{fill:url(#未命名的渐变_30-4);}</style><linearGradient id="未命名的渐变_24" x1="26.37" y1="18.76" x2="53.02" y2="39.08" gradientUnits="userSpaceOnUse"><stop offset="0" stop-color="#35cfab"/><stop offset="1" stop-color="#5af179"/></linearGradient><linearGradient id="未命名的渐变_25" x1="111.86" y1="20.36" x2="112" y2="46.42" xlink:href="#未命名的渐变_24"/><linearGradient id="未命名的渐变_30" x1="127.11" y1="15.79" x2="135.94" y2="36.21" gradientUnits="userSpaceOnUse"><stop offset="0" stop-color="#f87826"/><stop offset="1" stop-color="#fbd16a"/></linearGradient><linearGradient id="未命名的渐变_30-2" x1="146.89" y1="13.16" x2="157.94" y2="31.42" xlink:href="#未命名的渐变_30"/><linearGradient id="未命名的渐变_30-3" x1="165.83" y1="13.38" x2="179.96" y2="34.29" xlink:href="#未命名的渐变_30"/><linearGradient id="未命名的渐变_30-4" x1="184.56" y1="13" x2="195.31" y2="29.05" xlink:href="#未命名的渐变_30"/></defs><path id="形状" class="cls-1" d="M40.57,25.06A5.5,5.5,0,0,1,37.1,22.4a.28.28,0,0,1,0-.15.3.3,0,0,1,0-.16l.11-.11a.29.29,0,0,1,.16,0h1.51a9.13,9.13,0,0,1-2.64-3.21,9,9,0,0,1-.93-4.05,8.82,8.82,0,0,1,4.28-7.3,13.72,13.72,0,0,1,1.32-.68A13.31,13.31,0,0,0,28.61,18h-.92A12.84,12.84,0,0,0,21.87,42.3a8.41,8.41,0,0,1,8.6-7.88l5.07.12a5.07,5.07,0,0,0,5-4.55c.16-1.69.33-3.41.43-4.29a.58.58,0,0,0-.1-.4A.66.66,0,0,0,40.57,25.06ZM55,18.91A13.27,13.27,0,0,0,48.23,8.36a8,8,0,0,0-7.72.48A7.14,7.14,0,0,0,37,14.68a7.19,7.19,0,0,0,.87,3.48,1,1,0,0,1,0-.24,5.74,5.74,0,0,1,5.75-5.75h.69l-.69,1.72a4.09,4.09,0,0,0-1.55.28,3.94,3.94,0,0,0-1.32.85A4,4,0,0,0,43.49,22h5.1a.87.87,0,0,1,.42.14.8.8,0,0,1,.28.35.86.86,0,0,1,0,.45.79.79,0,0,1-.21.39l-1.84,1.63a2.86,2.86,0,0,0-.8,1.22,2.81,2.81,0,0,0-.07,1.44c.39,1.76,1,4.52,1.17,5.8a12,12,0,0,1-1.74,8.8A12.52,12.52,0,0,0,62.38,25.5,12.43,12.43,0,0,0,55,18.91Z"/><path class="cls-2" d="M89.87,29.47A6.87,6.87,0,0,0,88,27.55a2.84,2.84,0,0,0,.59-.5,4.64,4.64,0,0,0,.76-.89,5.51,5.51,0,0,0,.89-3.07A6.7,6.7,0,0,0,89.9,21a6.23,6.23,0,0,0-1.22-2.08,6.51,6.51,0,0,0-2.23-1.59,8.56,8.56,0,0,0-3.5-.57H73.39a.66.66,0,0,0-.34.06.9.9,0,0,0-.47.47.83.83,0,0,0-.07.34V38.58a.8.8,0,0,0,.07.34.77.77,0,0,0,.19.28.73.73,0,0,0,.28.19.8.8,0,0,0,.34.07l10.33,0a7.31,7.31,0,0,0,3-.59,6.58,6.58,0,0,0,2.19-1.57,6.79,6.79,0,0,0,1.33-2.2,7,7,0,0,0,.45-2.44A5.47,5.47,0,0,0,89.87,29.47Zm-13-8.65h5.77a3.92,3.92,0,0,1,2.4.62,2.33,2.33,0,0,1,.77,1.87h0a2.25,2.25,0,0,1-.15,1,2.47,2.47,0,0,1-.58.85,4,4,0,0,1-2.47.62H76.92Zm9.24,12.91a2.83,2.83,0,0,1-.62.91,3.67,3.67,0,0,1-2.65.76h-6l0-5.53h6a3.7,3.7,0,0,1,2.58.79,2.83,2.83,0,0,1,.62,3.07Z"/><path class="cls-2" d="M95.65,39.46a1,1,0,0,1-.33-.06,1.07,1.07,0,0,1-.28-.19.83.83,0,0,1-.19-.27.78.78,0,0,1-.07-.33v-21a.75.75,0,0,1,.06-.33.85.85,0,0,1,.48-.48.75.75,0,0,1,.33-.06h2.66a.75.75,0,0,1,.33.06.77.77,0,0,1,.28.19.9.9,0,0,1,.2.28,1,1,0,0,1,.07.34v21a1,1,0,0,1-.07.34.9.9,0,0,1-.2.28.77.77,0,0,1-.28.19.75.75,0,0,1-.33.06Z"/><path class="cls-3" d="M119.89,16.77a.75.75,0,0,1,.33.06.85.85,0,0,1,.48.48.92.92,0,0,1,.06.33V20a.77.77,0,0,1-.06.33.9.9,0,0,1-.47.47.83.83,0,0,1-.34.07H114V38.61a.75.75,0,0,1-.06.33.85.85,0,0,1-.48.48.75.75,0,0,1-.33.06h-2.55a.79.79,0,0,1-.34-.06.81.81,0,0,1-.29-.19,1,1,0,0,1-.19-.29.92.92,0,0,1-.06-.33V20.82h-5.9a.8.8,0,0,1-.34-.07.69.69,0,0,1-.28-.2.64.64,0,0,1-.19-.27.8.8,0,0,1-.07-.34v-2.3a.75.75,0,0,1,.07-.33.7.7,0,0,1,.19-.29.87.87,0,0,1,.28-.19.79.79,0,0,1,.34-.06Z"/><path class="cls-4" d="M143.11,25.74a12.43,12.43,0,0,0-.8-3.72,7.59,7.59,0,0,0-1.81-2.82,8,8,0,0,0-2.94-1.86,12.89,12.89,0,0,0-4.18-.63h-8a1,1,0,0,0-.33.06.8.8,0,0,0-.28.2,1,1,0,0,0-.2.28,1,1,0,0,0-.06.34v21a1,1,0,0,0,.06.34,1.1,1.1,0,0,0,.2.28.82.82,0,0,0,.61.25h8.17a12,12,0,0,0,4.07-.62,7.77,7.77,0,0,0,2.9-1.81,7.67,7.67,0,0,0,1.79-2.82,12.58,12.58,0,0,0,.77-3.69C143.19,28.94,143.19,27.33,143.11,25.74Zm-4.41,4.77a6.77,6.77,0,0,1-.4,1.94,4.3,4.3,0,0,1-1,1.56,4.59,4.59,0,0,1-1.62,1,6.34,6.34,0,0,1-2.32.37h-4.5V20.78h4.29a7.06,7.06,0,0,1,2.41.37,4.44,4.44,0,0,1,1.66,1,4.29,4.29,0,0,1,1,1.55,6.37,6.37,0,0,1,.39,1.93A39.09,39.09,0,0,1,138.7,30.51Z"/><path class="cls-5" d="M162.4,35.4h-9.51a1.21,1.21,0,0,1-.86-.35,1.25,1.25,0,0,1-.35-.86V30h9.75a.82.82,0,0,0,.61-.25.84.84,0,0,0,.2-.29,1,1,0,0,0,.07-.34v-2.3a.88.88,0,0,0-.27-.61.93.93,0,0,0-.61-.27h-9.66v-3.8a1.33,1.33,0,0,1,1.33-1.33h9.13a.75.75,0,0,0,.33-.07.77.77,0,0,0,.28-.19.87.87,0,0,0,.19-.28,1,1,0,0,0,.06-.33V17.64a1,1,0,0,0-.06-.33.91.91,0,0,0-.19-.29.82.82,0,0,0-.61-.25H151.52A4.13,4.13,0,0,0,148.59,18a4.18,4.18,0,0,0-1.22,2.92V35.38a4.11,4.11,0,0,0,4.1,4.08H162.4a.72.72,0,0,0,.33-.07.67.67,0,0,0,.28-.19.83.83,0,0,0,.27-.62v-2.3a.93.93,0,0,0-.88-.88Z"/><path class="cls-6" d="M182.33,35.4h-9.51a1.21,1.21,0,0,1-1.22-1.21V30h9.76a.82.82,0,0,0,.61-.25.84.84,0,0,0,.2-.29,1,1,0,0,0,.07-.34v-2.3a.88.88,0,0,0-.27-.61.93.93,0,0,0-.61-.27h-9.79v-3.8a1.33,1.33,0,0,1,1.33-1.33H182a.8.8,0,0,0,.34-.07.81.81,0,0,0,.29-.19,1.07,1.07,0,0,0,.19-.28,1,1,0,0,0,.06-.33V17.64a.92.92,0,0,0-.06-.33,1,1,0,0,0-.19-.29.91.91,0,0,0-.29-.19.79.79,0,0,0-.34-.06H171.38A4.25,4.25,0,0,0,167.12,21V35.24a4.22,4.22,0,0,0,4.21,4.22h11a.75.75,0,0,0,.33-.07.67.67,0,0,0,.28-.19.8.8,0,0,0,.2-.28,1,1,0,0,0,.07-.34v-2.3a.93.93,0,0,0-.88-.88Z"/><path class="cls-7" d="M205,38.39l-4.46-8a6.49,6.49,0,0,0,3.18-2.48,7.26,7.26,0,0,0,1.09-4,6.49,6.49,0,0,0-.46-2.89,6.62,6.62,0,0,0-1.65-2.4,9,9,0,0,0-6.15-1.88h-8.37a.82.82,0,0,0-.61.25.94.94,0,0,0-.2.29,1,1,0,0,0-.07.34V38.61a1,1,0,0,0,.07.34.9.9,0,0,0,.2.28.77.77,0,0,0,.28.19.75.75,0,0,0,.33.06h2.66a.77.77,0,0,0,.33-.06.9.9,0,0,0,.47-.47.83.83,0,0,0,.07-.34V31H196l4.25,7.55a1.89,1.89,0,0,0,.44.57,1.36,1.36,0,0,0,.95.31h2.76a.66.66,0,0,0,.27-.06.53.53,0,0,0,.23-.16.69.69,0,0,0,.16-.22.86.86,0,0,0,0-.27A.78.78,0,0,0,205,38.39Zm-4.78-13.14a2.57,2.57,0,0,1-.89,1.07,5.62,5.62,0,0,1-3,.65H191.7V20.82h4.69a6,6,0,0,1,3,.61,2.51,2.51,0,0,1,1.1,2.43A2.54,2.54,0,0,1,200.23,25.25Z"/></svg>