<svg id="图层_1" data-name="图层 1" xmlns="http://www.w3.org/2000/svg" viewBox="0 0 220 50"><defs><style>.cls-1{fill:#f7a600;}</style></defs><path class="cls-1" d="M132.73,34.65V7.19h5.52V34.65Z"/><path d="M68.4,42.81H56.57V15.35H67.93c5.52,0,8.73,3,8.73,7.71a6.32,6.32,0,0,1-3.49,5.67,6.37,6.37,0,0,1,3.89,6.17C77.06,40,73.45,42.81,68.4,42.81Zm-.91-22.68h-5.4v6.33h5.4c2.34,0,3.65-1.28,3.65-3.17S69.83,20.13,67.49,20.13Zm.36,11.15H62.09V38h5.76c2.5,0,3.69-1.55,3.69-3.4S70.35,31.28,67.85,31.28Z"/><path d="M93.9,31.55V42.81H88.41V31.55l-8.49-16.2h6l5.28,11.07L96.4,15.35h6Z"/><path d="M118,42.81H106.21V15.35h11.35c5.52,0,8.74,3,8.74,7.71a6.33,6.33,0,0,1-3.5,5.67,6.38,6.38,0,0,1,3.9,6.17C126.7,40,123.08,42.81,118,42.81Zm-.91-22.68h-5.4v6.33h5.4c2.34,0,3.65-1.28,3.65-3.17S119.47,20.13,117.13,20.13Zm.35,11.15h-5.75V38h5.75c2.51,0,3.7-1.55,3.7-3.4S120,31.28,117.48,31.28Z"/><path d="M156,20.13V42.81h-5.52V20.13h-7.38V15.35h20.29v4.78Z"/></svg>