<svg id="图层_1" data-name="图层 1" xmlns="http://www.w3.org/2000/svg" viewBox="0 0 220 50"><defs><style>.cls-1{fill:#13c636;}</style></defs><path class="cls-1" d="M174.48,19.69c-.75-2.82-6.56-9.3-10.79-14.52a1.06,1.06,0,0,0-.83-.5c-.42,0-.75.41-.58.75s4.23,8.79,3.48,11.53-4.48,2.24-5.06,2.24c-.33,0-.08.25.25.58a10,10,0,0,1,3.4,7.72V30c0,.08,0,.08.09.08,4.73-.41,11.95-3.32,10-10.37"/><path class="cls-1" d="M156.14,36c0,2.4-3.24,3.73-5.31,3.73-2.24,0-5.4-1.33-5.4-3.73V27.57c0-2.4,3.16-3.48,5.4-3.48,2.07,0,5.31,1.16,5.31,3.48Zm-5.31-17.26c-5,.08-10.79,2.9-10.79,8.71v8.88c0,5.89,5.81,8.71,10.79,8.71s10.7-2.82,10.7-8.71v-8.8c0-5.81-5.81-8.71-10.7-8.79"/><path class="cls-1" d="M118.63,36c0,2.4-3.24,3.73-5.31,3.73-2.24,0-5.4-1.33-5.4-3.73V27.57c0-2.4,3.16-3.48,5.4-3.48,2.07,0,5.31,1.16,5.31,3.48Zm-5.4-17.26c-5,.08-10.78,2.9-10.78,8.71v8.88c0,5.89,5.8,8.71,10.78,8.71s10.71-2.82,10.71-8.71v-8.8c0-5.81-5.81-8.71-10.71-8.79"/><path class="cls-1" d="M59.13,19.77c.33-.33.58-.58.25-.58-.58,0-4.32.58-5.07-2.24S57.63,5.75,57.8,5.42a.63.63,0,0,0-.66-.75c-.42,0-.75.5-.83.5-4.15,5.22-10.05,11.7-10.79,14.52-1.91,7,5.47,10,10.12,10.46a.09.09,0,0,0,.09-.09V27.57a10.24,10.24,0,0,1,3.4-7.8"/><path class="cls-1" d="M102.11,20.77a38.36,38.36,0,0,0-11.2-1.5,38.77,38.77,0,0,0-11.2,1.5c-.17.08-.25.25-.17.33a6.76,6.76,0,0,1,2.16,4.31,42,42,0,0,1,6.47-1v20.5c0,.08.09.08.17.08h5.14c.09,0,.17,0,.17-.08V24.42a31.63,31.63,0,0,1,6.22,1,6.89,6.89,0,0,1,2.41-4.31c0-.17-.08-.33-.17-.33"/><path class="cls-1" d="M140.2,19a9.64,9.64,0,0,0-2.49-.17c-4.89.17-10.45,3.07-10.45,8.71V45.08c0,.09.08.09.16.09h5.15c.08,0,.17,0,.17-.09v-.5h0v-17c0-1.91,2.32-3,4.23-3.4a9.25,9.25,0,0,1,3.32-4.56c.25-.25.16-.58-.09-.58"/><path class="cls-1" d="M74,29.07c0,.08,0,.08-.08.16s-.08.09-.17.09H63.94V27.57c0-2.4,2.91-3.57,5.15-3.57S74,25.17,74,27.57ZM69.09,18.61c-5.07.08-10.63,3-10.63,8.88v9c0,6,5.56,8.8,10.63,8.88,3.65,0,7.71-1.49,9.7-4.73.09-.08,0-.25-.08-.33-1.74-1-2.74-1.58-4.48-2.49-.08,0-.08,0-.17.08-.91,1.58-3.31,2.41-5,2.41-2.24,0-5.15-1.41-5.15-3.82V33.8H78a1.31,1.31,0,0,0,1.32-1.33v-4.9c0-6-5.23-8.88-10.2-9"/></svg>