<svg id="图层_1" data-name="图层 1" xmlns="http://www.w3.org/2000/svg" viewBox="0 0 220 50"><defs><style>.cls-1{fill-rule:evenodd;}</style></defs><path class="cls-1" d="M44.29,39.18H36.68V28.32H31.75V39.18H24v-28h7.8V21.62h4.93V11.16h7.61Zm34.91.12A14.32,14.32,0,0,0,93.37,24.92a14.21,14.21,0,0,0-27-6.15c0-3.46-3.46-7.61-7.49-7.61h-13v28H58a8.41,8.41,0,0,0,8.39-7.89,14.27,14.27,0,0,0,12.85,8ZM57,27.92a2.4,2.4,0,0,1,0,4.74H53.12V27.92ZM57,17.4a2.24,2.24,0,0,1,2,2.34,2.22,2.22,0,0,1-2,2.34H53.12V17.4Zm5.12,7.52A6,6,0,0,0,65,23.21a11.37,11.37,0,0,0,0,3.86A5.91,5.91,0,0,0,62.11,24.92Zm10,0a7.12,7.12,0,1,1,14.23,0V25a7.12,7.12,0,0,1-14.23-.11Zm7.11,5.62a5.6,5.6,0,0,0,0-11.2,5.6,5.6,0,1,0,0,11.2Z"/><path d="M134.06,21.08c-.16-6.79-4.95-10.38-10.84-10.38a10.91,10.91,0,0,0-8.12,3.19A11,11,0,0,0,107,10.7c-5.89,0-10.69,3.59-10.84,10.39V36.62a2.57,2.57,0,0,0,2.57,2.57h2.44a.43.43,0,0,0,.43-.43h0V21.14h0a5.41,5.41,0,0,1,10.81,0h0V36.62A2.57,2.57,0,0,0,115,39.19h2.43a.43.43,0,0,0,.43-.43h0V21.14h0a5.41,5.41,0,0,1,10.81,0h0V36.62a2.57,2.57,0,0,0,2.58,2.57h2.43a.43.43,0,0,0,.43-.43h0V21.14S134.06,21.1,134.06,21.08Z"/><path d="M188.82,11.15h-4.13a3.42,3.42,0,0,0-2.84,1.52l-4.56,6.76a1.5,1.5,0,0,1-2.08.41,1.6,1.6,0,0,1-.41-.41l-4.56-6.76a3.44,3.44,0,0,0-2.85-1.52h-4.12a.33.33,0,0,0-.33.32.28.28,0,0,0,.06.18l8.14,12.08a2.56,2.56,0,0,1,0,2.88L163,38.69a.31.31,0,0,0,.09.44.28.28,0,0,0,.18.06h4.12a3.44,3.44,0,0,0,2.85-1.52l4.56-6.76a1.5,1.5,0,0,1,2.08-.41,1.6,1.6,0,0,1,.41.41l4.56,6.76a3.42,3.42,0,0,0,2.84,1.52h4.13a.32.32,0,0,0,.32-.32.35.35,0,0,0,0-.18l-8.15-12.08a2.56,2.56,0,0,1,0-2.88l8.15-12.08a.31.31,0,0,0-.09-.44A.3.3,0,0,0,188.82,11.15Z"/><path d="M161.1,11.15h-2.43a2.59,2.59,0,0,0-2.52,2,12.79,12.79,0,0,0-7.81-2.48c-7.12,0-12.89,5-12.89,14.3s5.77,14.3,12.89,14.3a12.74,12.74,0,0,0,7.77-2.45,2.57,2.57,0,0,0,2.56,2.34h2.43a.43.43,0,0,0,.43-.43h0V11.58A.43.43,0,0,0,161.1,11.15ZM148.34,34c-4.25,0-7.7-3.11-7.7-9s3.45-9,7.7-9,7.7,3.11,7.7,9S152.59,34,148.34,34Z"/><path d="M192.57,11.69h-.81v2.44h-.6V11.69h-.8v-.56h2.21Z"/><path d="M196.05,14.13h-.59v-2l-.84,1.4h-.07l-.85-1.39v1.94h-.59v-3h.61l.86,1.42.86-1.42h.61v3Z"/></svg>