<svg id="图层_1" data-name="图层 1" xmlns="http://www.w3.org/2000/svg" viewBox="0 0 220 50"><rect x="91.74" y="6.76" width="12.15" height="36.48" rx="0.92"/><rect x="116.07" y="6.76" width="12.15" height="12.15" rx="0.92"/><rect x="116.07" y="31.09" width="12.15" height="12.15" rx="0.92"/><path d="M115.11,31.06H103.88V18.91h11.23a.92.92,0,0,1,.92.91V30.14A.92.92,0,0,1,115.11,31.06Z"/><rect x="158.62" y="6.76" width="12.15" height="12.15" rx="0.92"/><rect x="158.62" y="31.09" width="12.15" height="12.15" rx="0.92"/><rect x="134.29" y="6.76" width="12.15" height="12.15" rx="0.92"/><rect x="134.29" y="31.09" width="12.15" height="12.15" rx="0.92"/><rect x="146.43" y="18.91" width="12.15" height="12.15" rx="0.92"/><path d="M84.79,6.76H50.15a.92.92,0,0,0-.92.92V42.32a.92.92,0,0,0,.92.92H84.79a.92.92,0,0,0,.92-.92V7.68A.92.92,0,0,0,84.79,6.76ZM73.54,30.14a.91.91,0,0,1-.91.91H62.31a.91.91,0,0,1-.91-.91V19.82a.91.91,0,0,1,.91-.91H72.63a.91.91,0,0,1,.91.91Z"/></svg>