<svg id="图层_1" data-name="图层 1" xmlns="http://www.w3.org/2000/svg" viewBox="0 0 220 50"><defs><style>.cls-1,.cls-2{fill:#13da5a;}.cls-2{fill-rule:evenodd;}</style></defs><path class="cls-1" d="M171.87,30a3.83,3.83,0,0,1-3.5,1.85c-2.66,0-4.87-2.53-4.87-5.9s2.21-5.37,4.89-5.37a3.88,3.88,0,0,1,3.46,1.77V20.78h2.62V31.61h-2.6Zm-3-7.14a3,3,0,0,0-3.1,3.09c0,1.76,1.22,3.62,3.1,3.62s3-1.86,3-3.62A3,3,0,0,0,168.86,22.84Zm11.64-5.7H178V19h2.52Zm0,3.61H178V31.61h2.52Z"/><path class="cls-1" d="M115.94,26.15a5.4,5.4,0,1,1-10.78,0,5.4,5.4,0,1,1,10.78,0Zm-2.55,0c0-1.85-1.15-3.27-2.82-3.27a3,3,0,0,0-2.85,3.27,3,3,0,0,0,2.85,3.27C112.25,29.42,113.39,28,113.39,26.15Z"/><path class="cls-2" d="M153.37,25.6h4.94v3a6.44,6.44,0,0,1-3.62.9,4.76,4.76,0,0,1-5-5.11c0-2.85,1.74-5,4.5-5a4.24,4.24,0,0,1,3.44,1.46h2.85c-.51-1.54-2.24-3.88-6.29-3.88A7.08,7.08,0,0,0,147,24.35c0,4.46,3,7.54,7.69,7.54a9,9,0,0,0,6.18-2.14V23.3h-7.48Z"/><path class="cls-2" d="M121,20.75l-2.51,2.6v8.26H121V23.28h5.28V20.75Zm10,0-2.51,2.6v8.26H131V23.28h3.69v8.33h2.52V23.28H141v8.33h2.5V20.75Zm-28.25,2.53V20.75H98.5V17.14H96V29l2.52,2.59h4.32V29.08H98.5v-5.8Zm88.42-2.53H184V31.61h2.52V23.28h4.68v8.33h2.51V23.35ZM88.52,22.93c-1-.1-1.6-.19-2.47-.27-1.48-.18-2.29-.75-2.29-1.73s1-1.73,2.93-1.73a4.14,4.14,0,0,1,3.67,1.55h2.75c-.46-1.82-2.13-3.88-6.42-3.88-3.35,0-5.62,1.55-5.62,4.14s2,4,4.78,4.26l2.49.26c1.45.19,2.43.63,2.43,2,0,1.17-1.13,2-3.26,2A4.31,4.31,0,0,1,83.77,28h-3c.72,1.9,2.57,3.88,6.71,3.88,4,0,6-1.89,6-4.51C93.48,24.36,91.31,23.19,88.52,22.93Z"/><path class="cls-2" d="M44.15,7.13,26.28,24.46H44.15L62,7.13Zm0,17.33L26.28,42.87H44.15L62,24.46Z"/></svg>