<svg xmlns="http://www.w3.org/2000/svg" viewBox="0 0 24 19.89847"><defs><style>.cls-1{fill:#bdbfc0;}</style></defs><g id="图层_2" data-name="图层 2"><g id="图层_1-2" data-name="图层 1"><path class="cls-1" d="M12.68893,15.68571c-.51486-.51548-1.22468-.74209-1.75841-1.25969-.823-.79814-.60614-1.42766.05931-2.07059,1.21993-1.17867,2.49891-2.29609,3.72423-3.46936,1.02835-.98467,2.12194-1.90434,3.05572-2.98466.19591-.22665.5422-.48766.2155-.81839-.27673-.28014-.56968-.00457-.8014.14854q-4.279,2.82739-8.545,5.67448c-.32484.21575-.6582.41908-.99227.62045a4.17626,4.17626,0,0,1-3.53193.28308c-1.06164-.324-2.10988-.69214-3.162-1.04688-.43828-.14777-.89006-.37322-.94688-.8537-.06112-.51678.37468-.7842.80639-.97568q2.06676-.91666,4.1361-1.82751c2.86591-1.22244,5.72237-2.46768,8.60047-3.66073,2.75066-1.14022,5.466-2.37382,8.31517-3.26383A4.32452,4.32452,0,0,1,22.60144.017a1.10647,1.10647,0,0,1,1.3977,1.18389,27.60671,27.60671,0,0,1-.49932,4.50963c-.49588,3.23834-1.03593,6.46994-1.55792,9.70429-.27454,1.015-.31922,2.07925-.67213,3.0783-.48238,1.36558-1.32036,1.75636-2.61065,1.08279-1.60386-.83728-3.01319-1.98767-4.531-2.96568Q13.40919,16.14693,12.68893,15.68571Z"/></g></g></svg>