<svg id="图层_1" data-name="图层 1" xmlns="http://www.w3.org/2000/svg" viewBox="0 0 220 50"><defs><style>.cls-1{fill:#25f4ee;}.cls-2{fill:#fe2c55;}</style></defs><g id="页面1"><g id="编组-2"><path id="路径" class="cls-1" d="M40.59,20.78V19.23A12.65,12.65,0,0,0,39,19.09,12,12,0,0,0,32.06,41a12,12,0,0,1,8.53-20.25Z"/><path id="路径-2" data-name="路径" class="cls-1" d="M40.88,38.33a5.52,5.52,0,0,0,5.5-5.27V6.79h4.8A8.5,8.5,0,0,1,51,5.12H44.47V31.37A5.5,5.5,0,0,1,39,36.68,5.59,5.59,0,0,1,36.44,36,5.51,5.51,0,0,0,40.88,38.33Z"/><path id="路径-3" data-name="路径" class="cls-1" d="M60.14,15.7V14.24a9,9,0,0,1-5-1.5,9.09,9.09,0,0,0,5,3Z"/><path id="路径-4" data-name="路径" class="cls-2" d="M55.18,12.74a9,9,0,0,1-2.25-6H51.18a9.06,9.06,0,0,0,4,6Z"/><path id="路径-5" data-name="路径" class="cls-2" d="M39,25.65A5.51,5.51,0,0,0,36.42,36a5.5,5.5,0,0,1,4.46-8.72,6,6,0,0,1,1.63.25V20.89a11.07,11.07,0,0,0-1.63-.12h-.29v5.08A5.61,5.61,0,0,0,39,25.65Z"/><path id="路径-6" data-name="路径" class="cls-2" d="M60.14,15.7v5.08a15.58,15.58,0,0,1-9.1-3V31.17A12.08,12.08,0,0,1,39,43.21,11.85,11.85,0,0,1,32.06,41a12,12,0,0,0,20.87-8.2V19.52a15.55,15.55,0,0,0,9.12,2.92V15.9A9.46,9.46,0,0,1,60.14,15.7Z"/><path id="路径-7" data-name="路径" d="M51,31.17V17.82a15.55,15.55,0,0,0,9.12,2.92V15.66a9.08,9.08,0,0,1-5-2.92,9.06,9.06,0,0,1-4-6h-4.8V33.06a5.51,5.51,0,0,1-10,3A5.51,5.51,0,0,1,39,25.68a6,6,0,0,1,1.63.25V20.86A12,12,0,0,0,32,41.17a11.94,11.94,0,0,0,6.92,2A12.08,12.08,0,0,0,51,31.17Z"/></g></g><g id="页面1-2" data-name="页面1"><g id="编组"><polygon id="路径-8" data-name="路径" points="70.93 14.69 91.4 14.69 89.52 20.61 84.21 20.61 84.21 42.19 77.57 42.19 77.57 20.61 70.94 20.61 70.93 14.69"/><polygon id="路径-9" data-name="路径" points="124.92 14.69 145.85 14.69 143.97 20.61 138.21 20.61 138.21 42.19 131.58 42.19 131.58 20.61 124.93 20.61 124.92 14.69"/><polygon id="路径-10" data-name="路径" points="92.64 23.44 99.2 23.44 99.2 42.19 92.69 42.19 92.64 23.44"/><polygon id="路径-11" data-name="路径" points="101.81 14.62 108.36 14.62 108.36 27.43 114.86 21.08 122.68 21.08 114.47 29.05 123.67 42.19 116.45 42.19 110.3 33.06 108.36 34.94 108.36 42.19 101.81 42.19 101.81 14.62"/><polygon id="路径-12" data-name="路径" points="171.25 14.62 177.88 14.62 177.88 27.43 184.36 21.08 192.19 21.08 183.97 29.05 193.11 42.19 185.89 42.19 179.75 33.06 177.88 34.94 177.88 42.19 171.31 42.19 171.25 14.62"/><circle id="椭圆形" cx="95.93" cy="17.99" r="3.3"/><path id="路径-13" data-name="路径" class="cls-1" d="M145,31a11.22,11.22,0,0,1,10.34-11.19h-1a11.22,11.22,0,0,0,0,22.41h1A11.22,11.22,0,0,1,145,31Z"/><path id="路径-14" data-name="路径" class="cls-2" d="M157.92,19.74h-1a11.23,11.23,0,0,1,0,22.38h1a11.23,11.23,0,0,0,0-22.45Z"/><path id="形状" d="M156.14,36.43A5.46,5.46,0,1,1,161.6,31a5.46,5.46,0,0,1-5.46,5.46Zm0-16.69A11.23,11.23,0,1,0,164.07,23,11.23,11.23,0,0,0,156.14,19.74Z"/></g></g></svg>