<svg xmlns="http://www.w3.org/2000/svg" viewBox="0 0 24 20"><defs><style>.cls-1{fill:#bdbfc0;}</style></defs><g id="图层_2" data-name="图层 2"><g id="图层_1-2" data-name="图层 1"><path class="cls-1" d="M24,2.368a9.617,9.617,0,0,1-2.827.794A5.038,5.038,0,0,0,23.338.37a9.698,9.698,0,0,1-3.129,1.223A4.856,4.856,0,0,0,16.616,0a4.98661,4.98661,0,0,0-4.922,5.049,5.18314,5.18314,0,0,0,.126,1.15A13.868,13.868,0,0,1,1.67.922a5.14,5.14,0,0,0-.666,2.54,5.08672,5.08672,0,0,0,2.19,4.203,4.83391,4.83391,0,0,1-2.23-.63v.062a5.01869,5.01869,0,0,0,3.95,4.95,4.812,4.812,0,0,1-2.223.088A4.94083,4.94083,0,0,0,7.29,15.64,9.722,9.722,0,0,1,0,17.733,13.71,13.71,0,0,0,7.548,20c9.058,0,14.01-7.692,14.01-14.365,0-.22-.005-.439-.013-.654A10.09966,10.09966,0,0,0,24,2.368"/></g></g></svg>