<svg xmlns="http://www.w3.org/2000/svg" viewBox="0 0 68 68"><defs><style>.cls-1{fill:#1434cb;}.cls-2{fill:#fff;}</style></defs><g id="图层_2" data-name="图层 2"><g id="图层_1-2" data-name="图层 1"><rect class="cls-1" width="68" height="68" rx="6"/><path class="cls-2" d="M47.45,25.66a12.09,12.09,0,0,0-4.3-.75c-4.74,0-8.09,2.39-8.11,5.82,0,2.52,2.38,3.94,4.2,4.78s2.5,1.41,2.49,2.19c0,1.18-1.49,1.71-2.87,1.71a10.16,10.16,0,0,1-4.52-.92l-.59-.28-.67,3.95a16,16,0,0,0,5.37.93c5,0,8.34-2.38,8.38-6,0-2-1.26-3.53-4-4.79-1.66-.81-2.7-1.36-2.7-2.19s.89-1.51,2.74-1.51a8.74,8.74,0,0,1,3.6.68l.44.2.67-3.82-.12,0Zm12.32-.42H56.06a2.39,2.39,0,0,0-2.52,1.46L46.41,42.84h5l1-2.64h6.15c.15.62.59,2.64.59,2.64h4.45Zm-31.55-.15H33L30,42.7H25.21l3-17.62ZM16,34.8l.5,2.44,4.7-12H26.3L18.74,42.82H13.66L9.51,27.93a1,1,0,0,0-.45-.59,20.68,20.68,0,0,0-4.71-1.75l.06-.37h7.74a2,2,0,0,1,2.18,1.5L16,34.8Zm37.83,1.79,1.91-4.92s.4-1,.64-1.68l.33,1.51,1.11,5.09Z"/></g></g></svg>