<?xml version="1.0" encoding="UTF-8"?>
<svg id="_图层_2" data-name="图层 2" xmlns="http://www.w3.org/2000/svg" viewBox="0 0 68 68">
  <defs>
    <style>
      .cls-1 {
        fill: #1a75cf;
      }

      .cls-2 {
        fill: #fdbb30;
      }
    </style>
  </defs>
  <g id="_图层_1-2" data-name="图层 1">
    <rect class="cls-1" x="0" y="0" width="68" height="68" rx="34" ry="34"/>
    <path class="cls-2" d="m33.99,25.78c1.18,0,2.15-.61,2.28-1.4l1.16-13.16c0-1.3-1.52-2.37-3.44-2.37s-3.44,1.07-3.44,2.37l1.16,13.16c.13.79,1.1,1.4,2.27,1.4h0m-7.11,4.11c.59-1.02.55-2.17-.08-2.67l-10.82-7.59c-1.12-.65-2.81.13-3.77,1.79-.96,1.66-.79,3.51.33,4.16l11.98,5.58c.75.28,1.77-.26,2.36-1.28h0m14.23,0c.59,1.02,1.61,1.55,2.36,1.28l11.98-5.58c1.13-.65,1.29-2.5.34-4.16-.96-1.66-2.65-2.44-3.77-1.79l-10.82,7.59c-.62.51-.66,1.66-.08,2.67h0m-7.12,12.33c1.18,0,2.15.61,2.28,1.4l1.16,13.16c0,1.3-1.52,2.37-3.44,2.37s-3.44-1.07-3.44-2.37l1.16-13.16c.13-.79,1.1-1.4,2.27-1.4h0m7.12-4.11c.59-1.02,1.61-1.55,2.36-1.27l11.98,5.57c1.13.65,1.29,2.51.34,4.16-.96,1.65-2.65,2.44-3.77,1.79l-10.82-7.58c-.62-.51-.66-1.66-.08-2.68h0m-14.23,0c.59,1.02.55,2.17-.08,2.68l-10.82,7.58c-1.12.65-2.81-.14-3.77-1.79-.96-1.66-.79-3.51.33-4.16l11.98-5.57c.75-.28,1.77.25,2.36,1.27h0"/>
    <path class="cls-2" d="m58.57,47.53h.09c.12,0,.2-.05.2-.12,0-.08-.07-.13-.18-.13-.04,0-.08,0-.1,0v.25h0s0,0,0,0Zm-.01.59h-.32v-1.03c.07-.01.24-.04.45-.04.23,0,.34.03.41.08.06.05.11.12.11.23s-.1.2-.24.23h0c.12.04.18.13.21.28.03.15.05.21.07.25h-.36s-.05-.13-.07-.22c-.02-.1-.07-.16-.18-.16h-.1v.38s0,0,0,0Zm.13-1.37c-.45,0-.8.37-.8.84s.34.84.81.84c.47,0,.81-.38.81-.84s-.34-.84-.82-.84h0,0Zm.02-.28c.63,0,1.14.5,1.14,1.12s-.51,1.12-1.15,1.12-1.15-.5-1.15-1.12.51-1.12,1.15-1.12h0"/>
  </g>
</svg>