<svg xmlns="http://www.w3.org/2000/svg" viewBox="0 0 24 16.61023"><defs><style>.cls-1{fill:#bdbfc0;}</style></defs><g id="图层_2" data-name="图层 2"><g id="图层_1-2" data-name="图层 1"><path class="cls-1" d="M23.48193,2.59074A2.98372,2.98372,0,0,0,21.36393.488c-1.8742-.48759-9.371-.48759-9.371-.48759S4.63326-.03009,2.75906.4575A3.27922,3.27922,0,0,0,.4582,2.59074a29.20057,29.20057,0,0,0-.45712,5.714,29.20066,29.20066,0,0,0,.45712,5.714A3.30768,3.30768,0,0,0,2.75906,16.152c1.8742.50284,9.23386.45712,9.23386.45712s7.35967.03047,9.23388-.45712a3.23488,3.23488,0,0,0,2.27037-2.13324A30.44409,30.44409,0,0,0,24,8.30476,31.00273,31.00273,0,0,0,23.48193,2.59074ZM9.69208,11.99221V4.61732l5.9883,3.68744Z"/></g></g></svg>